<?xml version="1.0" encoding="utf-8"?>
<!-- Generator: Adobe Illustrator 22.1.0, SVG Export Plug-In . SVG Version: 6.00 Build 0)  -->
<svg version="1.1" id="Layer_1" xmlns="http://www.w3.org/2000/svg" xmlns:xlink="http://www.w3.org/1999/xlink" x="0px" y="0px"
	 width="239px" height="46.9px" viewBox="0 0 239 46.9" style="enable-background:new 0 0 239 46.9;" xml:space="preserve">
<style type="text/css">
	.st0{fill:#212549;}
	.st1{fill:#F7B912;}
	.st2{fill:url(#SVGID_1_);}
	.st3{fill:url(#SVGID_2_);}
</style>
<title>Komplettno_logo_techs</title>
<g id="ARBEIDSLAG_copy">
	<g id="GEEKS">
		<g id="Layer_1-2">
			<g>
				<path class="st0" d="M77.3,13.5c-5.3,0-8.5,2.4-8.5,8.9V26c0,6.5,3.2,8.9,8.5,8.9s8.5-2.4,8.5-8.9v-3.6
					C85.8,15.9,82.7,13.5,77.3,13.5z M81.8,26c0,4.1-1.8,5.3-4.5,5.3s-4.5-1.4-4.5-5.3v-3.6c0-3.7,1.9-5.3,4.6-5.3s4.5,1.4,4.5,5.3
					L81.8,26z"/>
				<path class="st0" d="M124.5,13.8H117c-0.2,0-0.3,0.1-0.3,0.3c0,0,0,0,0,0v20.3c0,0.2,0.1,0.3,0.3,0.3c0,0,0,0,0,0h3.6
					c0.2,0,0.3-0.1,0.3-0.3c0,0,0,0,0,0v-7.8c0-0.2,0.1-0.3,0.3-0.3c0,0,0,0,0,0h4c3.7,0,6.1-2.8,6.1-6.4S128.3,13.8,124.5,13.8z
					 M124.3,22.9h-3.1c-0.2,0-0.3-0.1-0.3-0.3c0,0,0,0,0,0v-5.4c0-0.2,0.1-0.3,0.3-0.3c0,0,0,0,0,0h3.1c1.7-0.1,3.1,1.1,3.2,2.8
					c0,0,0,0.1,0,0.1C127.5,21.5,126.1,22.9,124.3,22.9C124.3,22.9,124.3,22.9,124.3,22.9z"/>
				<path class="st0" d="M109,13.8H89.4c-0.2,0-0.3,0.1-0.3,0.3c0,0,0,0,0,0v20.3c0,0.2,0.1,0.3,0.3,0.3c0,0,0,0,0,0h3.5
					c0.2,0,0.3-0.1,0.3-0.3c0,0,0,0,0,0V17.8h5.2c0.4,0,0.3,0.3,0.3,0.3v16.3c0,0.2,0.1,0.3,0.3,0.3c0,0,0,0,0,0h3.6
					c0.2,0,0.3-0.1,0.3-0.3c0,0,0,0,0,0V17.8h5.2c0.2,0,0.3,0.1,0.3,0.3c0,0,0,0,0,0v16.3c0,0.2,0.1,0.3,0.3,0.3c0,0,0,0,0,0h3.6
					c0.2,0,0.3-0.1,0.3-0.3c0,0,0,0,0,0V16.6C112.5,15.6,112.2,13.8,109,13.8z"/>
				<path class="st0" d="M162.4,31.1h-8.8c-0.2,0-0.3-0.1-0.3-0.3c0,0,0,0,0,0V26c0-0.2,0.1-0.3,0.3-0.3c0,0,0,0,0,0h7.4
					c0.2,0,0.3-0.1,0.3-0.3c0,0,0,0,0,0v-3c0-0.2-0.1-0.3-0.3-0.3c0,0,0,0,0,0h-7.4c-0.2,0-0.3-0.1-0.3-0.3c0,0,0,0,0,0v-4.1
					c0-0.2,0.1-0.3,0.3-0.3c0,0,0,0,0,0h8.8c0.2,0,0.3-0.1,0.3-0.3c0,0,0,0,0,0v-3c0-0.2-0.1-0.3-0.3-0.3c0,0,0,0,0,0h-13.1
					c-0.2,0-0.3,0.1-0.3,0.3c0,0,0,0,0,0v20.3c0,0.2,0.1,0.3,0.3,0.3c0,0,0,0,0,0h13.1c0.2,0,0.3-0.1,0.3-0.3c0,0,0,0,0,0v-3
					C162.7,31.2,162.6,31.1,162.4,31.1C162.4,31.1,162.4,31.1,162.4,31.1z"/>
				<path class="st0" d="M165.4,13.8c0,0-0.4,0-0.4,0.3v3c0,0.2,0.1,0.3,0.3,0.3c0,0,0,0,0,0h4.7c0.4,0,0.3,0.3,0.3,0.3v16.7
					c0,0.2,0.1,0.3,0.3,0.3c0,0,0,0,0,0h3.4c0,0,0.4,0,0.4-0.3V17.7c0-0.2,0.1-0.3,0.3-0.3c0,0,0,0,0,0h4.7c0.4,0,0.3-0.3,0.3-0.3
					v-3c0-0.2-0.1-0.3-0.3-0.3c0,0,0,0,0,0H165.4z"/>
				<path class="st0" d="M196.1,13.8h-13.9c0,0-0.4,0-0.4,0.3v3c0,0.2,0.1,0.3,0.3,0.3c0,0,0,0,0,0h4.7c0.4,0,0.3,0.3,0.3,0.3v16.7
					c0,0.2,0.1,0.3,0.3,0.3c0,0,0,0,0,0h3.4c0,0,0.4,0,0.4-0.3V17.7c0-0.2,0.1-0.3,0.3-0.3c0,0,0,0,0,0h4.7c0.2,0,0.3-0.1,0.3-0.3
					c0,0,0,0,0,0v-3C196.3,14.1,196.3,13.8,196.1,13.8z"/>
				<path class="st0" d="M68,13.8h-4.4c-0.2,0-0.5,0.1-0.6,0.3l-7.8,8.6v-8.6c0-0.2-0.3-0.3-0.3-0.3h-3.6c-0.2,0-0.3,0.1-0.3,0.3
					c0,0,0,0,0,0v20.3c0,0.2,0.1,0.3,0.3,0.3c0,0,0,0,0,0h3.6c0.2,0,0.3-0.1,0.3-0.3c0,0,0,0,0,0v-9.5l7.9,9.5
					c0.1,0.2,0.4,0.3,0.6,0.3h4.2c0.5,0,0.3-0.3,0.3-0.3l-9.1-10.8l9.1-9.6C68.3,14.1,68.6,13.8,68,13.8z"/>
				<path class="st0" d="M138.4,31.1c-0.2,0-0.3-0.1-0.3-0.3c0,0,0,0,0,0V14.1c0-0.2-0.1-0.3-0.3-0.3c0,0,0,0,0,0h-3.6
					c-0.2,0-0.3,0.1-0.3,0.3c0,0,0,0,0,0v20.3c0,0.2,0.1,0.3,0.3,0.3c0,0,0,0,0,0H146c0.2,0,0.3-0.1,0.3-0.3c0,0,0,0,0,0v-3
					c0-0.2-0.1-0.3-0.3-0.3c0,0,0,0,0,0H138.4z"/>
			</g>
			<path class="st0" d="M202.4,12.4c1.8,0,3.2,1.4,3.2,3.2s-1.4,3.2-3.2,3.2l0,0c-1.8,0-3.2-1.4-3.2-3.2
				C199.2,13.9,200.6,12.4,202.4,12.4C202.3,12.4,202.4,12.4,202.4,12.4z M202.4,18.1c1.4,0,2.5-1.1,2.5-2.5s-1.1-2.5-2.5-2.5
				s-2.5,1.1-2.5,2.5c0,1.3,1,2.5,2.3,2.5C202.3,18.1,202.3,18.1,202.4,18.1z M204,16.8v0.5l-0.1,0.1h-0.3l-0.2-0.1l-1-1.2l-0.2-0.1
				h-0.6l-0.1,0.1v1.2l-0.1,0.1h-0.5l-0.1-0.1v-3.4l0.1-0.1h1.8c0.6-0.1,1.1,0.4,1.2,1c0,0,0,0.1,0,0.1c0,0.5-0.3,0.9-0.7,1V16
				L204,16.8z M202.9,14.5h-1.1l-0.1,0.1v0.7l0.1,0.1h1.1c0.3,0,0.5-0.2,0.5-0.4c0,0,0,0,0-0.1C203.3,14.7,203.1,14.5,202.9,14.5z"
				/>
			<g id="Layer_2_1_">
				<polygon class="st1" points="30.4,17.6 40.6,11.7 20.4,0 0,11.7 0,35.1 20.4,46.9 40.6,35.1 				"/>
				<polygon class="st1" points="0,35.1 10.2,29.3 20.4,46.9 				"/>
				<polygon class="st1" points="0,11.7 20.4,0 40.6,11.7 20.4,23.4 				"/>
				
					<linearGradient id="SVGID_1_" gradientUnits="userSpaceOnUse" x1="1925.1764" y1="-1087.4719" x2="1972.1963" y2="-991.0718" gradientTransform="matrix(0.2 0 0 -0.2 -383.7 -181.77)">
					<stop  offset="0" style="stop-color:#B77B06"/>
					<stop  offset="0.5" style="stop-color:#D7920A"/>
					<stop  offset="1" style="stop-color:#ECA70D"/>
				</linearGradient>
				<polygon class="st2" points="0,11.7 20.4,23.4 0,35.1 				"/>
				
					<linearGradient id="SVGID_2_" gradientUnits="userSpaceOnUse" x1="2014.6949" y1="-1024.4288" x2="2077.0049" y2="-1116.8088" gradientTransform="matrix(0.2 0 0 -0.2 -383.7 -181.77)">
					<stop  offset="0" style="stop-color:#B77B06"/>
					<stop  offset="0.5" style="stop-color:#E69F0C"/>
					<stop  offset="1" style="stop-color:#F7B912"/>
				</linearGradient>
				<polygon class="st3" points="30.4,17.6 40.6,35.1 20.4,46.9 10.2,29.3 				"/>
			</g>
		</g>
	</g>
</g>
<g id="LAND">
	<g>
		<path class="st1" d="M203.7,34.7h-3.1l-0.3-0.3v-3.1l0.3-0.3h3.1l0.3,0.3v3.1L203.7,34.7z"/>
		<path class="st1" d="M221.4,34.7h-2.5l-0.3-0.3v-9c0-1.5-0.3-3.7-3.1-3.7s-4,1.5-4,5.3v7.4l-0.3,0.3h-2.5l-0.3-0.3V19.5l0.3-0.3
			h2.2l0.3,0.3l0.3,1.2h0.3c0.9-1.3,2.4-2,4-1.9c4.3,0,5.9,2.8,5.9,6.5v9L221.4,34.7z"/>
		<path class="st1" d="M231.6,18.9c4.7,0,7.4,3.1,7.4,8.1s-2.8,8.1-7.4,8.1s-7.4-3.1-7.4-8.1S227,18.9,231.6,18.9z M231.6,32.2
			c2.8,0,4.3-1.9,4.3-5.3s-1.5-5.3-4.3-5.3s-4.3,1.9-4.3,5.3S228.8,32.2,231.6,32.2z"/>
	</g>
</g>
</svg>
