<?xml version="1.0" encoding="UTF-8" standalone="no"?><!DOCTYPE svg PUBLIC "-//W3C//DTD SVG 1.1//EN" "http://www.w3.org/Graphics/SVG/1.1/DTD/svg11.dtd"><svg width="100%" height="100%" viewBox="0 0 188 43" version="1.1" xmlns="http://www.w3.org/2000/svg" xmlns:xlink="http://www.w3.org/1999/xlink" xml:space="preserve" xmlns:serif="http://www.serif.com/" style="fill-rule:evenodd;clip-rule:evenodd;stroke-linejoin:round;stroke-miterlimit:1.41421;"><path d="M70.6,12.3c-4.9,0 -7.8,2.2 -7.8,8.2l0,3.2c0,6 2.9,8.2 7.8,8.2c4.9,0 7.8,-2.2 7.8,-8.2l0,-3.2c0,-6 -3,-8.2 -7.8,-8.2Zm4.1,11.4c0,3.7 -1.7,4.8 -4.1,4.8c-2.5,0 -4.2,-1.3 -4.2,-4.8l0,-3.2c0,-3.5 1.7,-4.8 4.2,-4.8c2.5,0 4.1,1.3 4.1,4.8l0,3.2Z" style="fill:#1f1949;fill-rule:nonzero;"/><path d="M113.7,12.6l-6.8,0c0,0 -0.3,0 -0.3,0.3c0,0.3 0,18.2 0,18.5c0,0.3 0.3,0.3 0.3,0.3l3.3,0c0,0 0.3,0 0.3,-0.3c0,-0.3 0,-6.8 0,-7.1c0,-0.3 0.3,-0.3 0.3,-0.3l3.7,0c3.4,0 5.6,-2.5 5.6,-5.9c-0.1,-3.2 -3,-5.5 -6.4,-5.5Zm-0.2,8.4l-2.8,0c0,0 -0.3,0 -0.3,-0.3c0,-0.3 0,-4.6 0,-4.9c0,-0.3 0.3,-0.3 0.3,-0.3l2.8,0c1.6,0 2.9,1.1 2.9,2.6c0,1.7 -1.4,2.9 -2.9,2.9Z" style="fill:#1f1949;fill-rule:nonzero;"/><path d="M99.5,12.6l-17.9,0c0,0 -0.3,0 -0.3,0.3c0,0 0,18.3 0,18.5c0,0.3 0.3,0.3 0.3,0.3l3.3,0c0,0 0.3,0 0.3,-0.3c0,-0.3 0,-15.2 0,-15.2c0,0 4.4,0 4.7,0c0.3,0 0.3,0.3 0.3,0.3c0,0 0,14.6 0,14.9c0,0.3 0.3,0.3 0.3,0.3l3.3,0c0,0 0.3,0 0.3,-0.3c0,-0.3 0,-15.2 0,-15.2c0,0 4.4,0 4.7,0c0.3,0 0.3,0.3 0.3,0.3c0,0 0,14.6 0,14.9c0,0.3 0.3,0.3 0.3,0.3l3.3,0c0,0 0.3,0 0.3,-0.3c0,-0.3 0,-16.2 0,-16.2c-0.3,-0.9 -0.5,-2.5 -3.5,-2.6Z" style="fill:#1f1949;fill-rule:nonzero;"/><path d="M148.3,28.4c-0.3,0 -8.1,0 -8.1,0c0,0 -0.3,0 -0.3,-0.3c0,-0.3 0,-4.1 0,-4.4c0,-0.3 0.3,-0.3 0.3,-0.3c0,0 6.5,0 6.7,0c0.3,0 0.3,-0.3 0.3,-0.3l0,-2.7c0,0 0,-0.3 -0.3,-0.3c-0.2,0 -6.7,0 -6.7,0c0,0 -0.3,0 -0.3,-0.3c0,-0.3 0,-3.5 0,-3.8c0,-0.3 0.3,-0.3 0.3,-0.3c0,0 7.8,0 8.1,0c0.3,0 0.3,-0.3 0.3,-0.3l0,-2.7c0,0 0,-0.3 -0.3,-0.3c-0.3,0 -11.9,0 -11.9,0c0,0 -0.3,0 -0.3,0.3c0,0 0,18.2 0,18.5c0,0.3 0.3,0.3 0.3,0.3c0,0 11.6,0 11.9,0c0.3,0 0.3,-0.3 0.3,-0.3l0,-2.7c0,0.2 0,-0.1 -0.3,-0.1Z" style="fill:#1f1949;fill-rule:nonzero;"/><path d="M151,12.6c0,0 -0.3,0 -0.3,0.3c0,0.3 0,2.4 0,2.7c0,0.3 0.3,0.3 0.3,0.3c0,0 4,0 4.3,0c0.3,0 0.3,0.3 0.3,0.3c0,0 0,15 0,15.3c0,0.3 0.2,0.2 0.2,0.2l3,0c0,0 0.3,0 0.3,-0.3c0,-0.3 0,-15.3 0,-15.3c0,0 0,-0.3 0.3,-0.3c0.3,0 4,0 4.3,0c0.3,0 0.3,-0.3 0.3,-0.3l0,-2.7c0,0 0,-0.3 -0.3,-0.3c-0.2,0.1 -12.7,0.1 -12.7,0.1Z" style="fill:#1f1949;fill-rule:nonzero;"/><path d="M179,12.6c-0.3,0 -12.7,0 -12.7,0c0,0 -0.3,0 -0.3,0.3c0,0.3 0,2.4 0,2.7c0,0.3 0.3,0.3 0.3,0.3c0,0 4,0 4.3,0c0.3,0 0.3,0.3 0.3,0.3c0,0 0,15 0,15.3c0,0.3 0.3,0.3 0.3,0.3l3.1,0c0,0 0.3,0 0.3,-0.3c0,-0.3 0,-15.3 0,-15.3c0,0 0,-0.3 0.3,-0.3c0.3,0 4,0 4.3,0c0.3,0 0.3,-0.3 0.3,-0.3l0,-2.7c-0.2,0 -0.2,-0.3 -0.5,-0.3Z" style="fill:#1f1949;fill-rule:nonzero;"/><path d="M62,12.6c-0.5,0 -3.7,0 -4,0c-0.4,0 -0.5,0.3 -0.5,0.3l-7.1,7.9c0,0 0,-7.6 0,-7.9c0,-0.3 -0.3,-0.3 -0.3,-0.3l-3.3,0c0,0 -0.3,0 -0.3,0.3c0,0.3 0,18.2 0,18.5c0,0.3 0.3,0.3 0.3,0.3l3.3,0c0,0 0.3,0 0.3,-0.3c0,-0.3 0,-8.7 0,-8.7l7.2,8.7c0,0 0.2,0.3 0.5,0.3c0.4,0 3.4,0 3.8,0c0.4,0 0.2,-0.3 0.2,-0.3l-8.3,-9.8l8.3,-8.7c0.2,0 0.4,-0.3 -0.1,-0.3Z" style="fill:#1f1949;fill-rule:nonzero;"/><path d="M126.4,28.4c0,0 -0.3,0 -0.3,-0.3c0,-0.3 0,-15 0,-15.3c0,-0.3 -0.3,-0.3 -0.3,-0.3l-3.3,0c0,0 -0.3,0 -0.3,0.3c0,0.3 0,18.3 0,18.5c0,0.3 0.3,0.3 0.3,0.3c0,0 10.4,0 10.8,0c0.3,0 0.3,-0.3 0.3,-0.3l0,-2.6c0,0 0,-0.3 -0.3,-0.3c-0.2,0 -6.9,0 -6.9,0Z" style="fill:#1f1949;fill-rule:nonzero;"/><path d="M184.8,11.3c1.6,0 2.9,1.3 2.9,2.9c0,1.6 -1.3,2.9 -2.9,2.9c-1.6,0 -2.9,-1.3 -2.9,-2.9c0,-1.6 1.3,-2.9 2.9,-2.9Zm0,5.2c1.3,0 2.3,-1 2.3,-2.3c0,-1.3 -1,-2.3 -2.3,-2.3c-1.3,0 -2.3,1 -2.3,2.3c0,1.4 1,2.3 2.3,2.3Zm1.5,-1.1l0,0.4l-0.1,0.1l-0.2,0l-0.2,-0.1l-0.9,-1.1l-0.2,-0.1l-0.5,0l-0.1,0.1l0,1.1l-0.1,0.1l-0.5,0l-0.1,-0.1l0,-3.1l0.1,-0.1l1.6,0c0.7,0 1.1,0.3 1.1,1c0,0.4 -0.2,0.7 -0.7,0.9l0,0.1l0.8,0.8Zm-1.1,-2.2l-1,0l-0.1,0.1l0,0.7l0.1,0.1l1,0c0.2,0 0.4,-0.2 0.4,-0.4c0,-0.3 -0.2,-0.5 -0.4,-0.5Z" style="fill:#1f1949;fill-rule:nonzero;"/><path d="M27.8,16.1l9.2,-5.4l-18.5,-10.7l-18.5,10.7l0,21.4l18.5,10.7l18.5,-10.7l-9.2,-16Z" style="fill:#f7b912;fill-rule:nonzero;"/><path d="M0,32.1l9.2,-5.3l9.3,16l-18.5,-10.7Z" style="fill:#f7b912;fill-rule:nonzero;"/><path d="M0,10.7l18.5,-10.7l18.5,10.7l-18.5,10.7l-18.5,-10.7Z" style="fill:#f7b912;fill-rule:nonzero;"/><path d="M0,10.7l18.5,10.7l-18.5,10.7l0,-21.4Z" style="fill:url(#_Linear1);fill-rule:nonzero;"/><path d="M27.8,16.1l9.2,16l-18.5,10.7l-9.3,-16l18.6,-10.7Z" style="fill:url(#_Linear2);fill-rule:nonzero;"/><defs><linearGradient id="_Linear1" x1="0" y1="0" x2="1" y2="0" gradientUnits="userSpaceOnUse" gradientTransform="matrix(8.4299,-17.2838,17.2838,8.4299,1.1369,32.6938)"><stop offset="0" style="stop-color:#b77b06;stop-opacity:1"/><stop offset="0.5" style="stop-color:#d7920a;stop-opacity:1"/><stop offset="1" style="stop-color:#eca70d;stop-opacity:1"/></linearGradient><linearGradient id="_Linear2" x1="0" y1="0" x2="1" y2="0" gradientUnits="userSpaceOnUse" gradientTransform="matrix(11.1707,16.5613,-16.5613,11.1707,17.5512,21.1722)"><stop offset="0" style="stop-color:#b77b06;stop-opacity:1"/><stop offset="0.5" style="stop-color:#e69f0c;stop-opacity:1"/><stop offset="1" style="stop-color:#f7b912;stop-opacity:1"/></linearGradient></defs></svg>