0
SECTION
2
HEADER
9
$INSUNITS
70
4
9
$ACADVER
1
AC1014
9
$HANDSEED
5
FFFF
0
ENDSEC
0
SECTION
2
TABLES
0
TABLE
2
VPORT
5
8
100
AcDbSymbolTable
0
ENDTAB
0
TABLE
2
LTYPE
5
5
100
AcDbSymbolTable
0
LTYPE
5
14
100
AcDbSymbolTableRecord
100
AcDbLinetypeTableRecord
2
BYBLOCK
70
0
0
LTYPE
5
15
100
AcDbSymbolTableRecord
100
AcDbLinetypeTableRecord
2
BYLAYER
70
0
0
ENDTAB
0
TABLE
2
LAYER
5
2
100
AcDbSymbolTable
70
2
0
LAYER
5
50
100
AcDbSymbolTableRecord
100
AcDbLayerTableRecord
2
0
70
0
6
CONTINUOUS
0
ENDTAB
0
TABLE
2
STYLE
5
3
100
AcDbSymbolTable
70
1
0
STYLE
5
11
100
AcDbSymbolTableRecord
100
AcDbTextStyleTableRecord
2
STANDARD
70
0
0
ENDTAB
0
TABLE
2
VIEW
5
6
100
AcDbSymbolTable
70
0
0
ENDTAB
0
TABLE
2
UCS
5
7
100
AcDbSymbolTable
70
0
0
ENDTAB
0
TABLE
2
APPID
5
9
100
AcDbSymbolTable
70
2
0
APPID
5
12
100
AcDbSymbolTableRecord
100
AcDbRegAppTableRecord
2
ACAD
70
0
0
ENDTAB
0
TABLE
2
DIMSTYLE
5
A
100
AcDbSymbolTable
70
1
0
ENDTAB
0
TABLE
2
BLOCK_RECORD
5
1
100
AcDbSymbolTable
70
1
0
BLOCK_RECORD
5
1F
100
AcDbSymbolTableRecord
100
AcDbBlockTableRecord
2
*MODEL_SPACE
0
BLOCK_RECORD
5
1B
100
AcDbSymbolTableRecord
100
AcDbBlockTableRecord
2
*PAPER_SPACE
0
ENDTAB
0
ENDSEC
0
SECTION
2
BLOCKS
0
BLOCK
5
20
100
AcDbEntity
100
AcDbBlockBegin
2
*MODEL_SPACE
0
ENDBLK
5
21
100
AcDbEntity
100
AcDbBlockEnd
0
BLOCK
5
1C
100
AcDbEntity
100
AcDbBlockBegin
2
*PAPER_SPACE
0
ENDBLK
5
1D
100
AcDbEntity
100
AcDbBlockEnd
0
ENDSEC
0
SECTION
2
ENTITIES
0
CIRCLE
5
100
100
AcDbEntity
8
0
100
AcDbCircle
10
47.689999999999998
20
36.000000000000028
30
0
40
3.499999999999996
210
0
220
0
230
1
0
CIRCLE
5
101
100
AcDbEntity
8
0
100
AcDbCircle
10
107.69
20
36.000000000000028
30
0
40
3.499999999999996
210
0
220
0
230
1
0
CIRCLE
5
102
100
AcDbEntity
8
0
100
AcDbCircle
10
62.689999999999998
20
62.000000000000028
30
0
40
3.499999999999996
210
0
220
0
230
1
0
CIRCLE
5
103
100
AcDbEntity
8
0
100
AcDbCircle
10
105.19000000000003
20
94.500000000000028
30
0
40
1.5000000000000036
210
0
220
0
230
1
0
CIRCLE
5
104
100
AcDbEntity
8
0
100
AcDbCircle
10
72.189999999999998
20
94.500000000000028
30
0
40
3.2500000000000018
210
0
220
0
230
1
0
CIRCLE
5
105
100
AcDbEntity
8
0
100
AcDbCircle
10
105.69000000000004
20
147.25000000000003
30
0
40
1.6499999999999915
210
0
220
0
230
1
0
LWPOLYLINE
5
106
100
AcDbEntity
8
0
100
AcDbPolyline
90
4
70
1
43
0.0
10
65.189999999999998
20
124.75000000000001
10
77.390000000000015
20
124.75000000000001
10
77.390000000000015
20
144.25000000000003
10
65.189999999999998
20
144.25000000000003
0
LWPOLYLINE
5
107
100
AcDbEntity
8
0
100
AcDbPolyline
90
4
70
1
43
0.0
10
30.789999999999992
20
124.75000000000001
10
42.989999999999995
20
124.75000000000001
10
42.989999999999995
20
144.25000000000003
10
30.789999999999992
20
144.25000000000003
0
CIRCLE
5
108
100
AcDbEntity
8
0
100
AcDbCircle
10
106.68999999999998
20
188.00000000000006
30
0
40
1.6499999999999915
210
0
220
0
230
1
0
CIRCLE
5
109
100
AcDbEntity
8
0
100
AcDbCircle
10
62.689999999999998
20
179.50000000000003
30
0
40
3.2500000000000018
210
0
220
0
230
1
0
CIRCLE
5
110
100
AcDbEntity
8
0
100
AcDbCircle
10
18.689999999999994
20
171
30
0
40
1.6499999999999981
210
0
220
0
230
1
0
CIRCLE
5
111
100
AcDbEntity
8
0
100
AcDbCircle
10
18.689999999999994
20
179.50000000000003
30
0
40
3.2499999999999996
210
0
220
0
230
1
0
CIRCLE
5
112
100
AcDbEntity
8
0
100
AcDbCircle
10
62.689999999999998
20
188.00000000000006
30
0
40
1.6500000000000004
210
0
220
0
230
1
0
CIRCLE
5
113
100
AcDbEntity
8
0
100
AcDbCircle
10
106.69
20
179.50000000000003
30
0
40
3.2499999999999929
210
0
220
0
230
1
0
CIRCLE
5
114
100
AcDbEntity
8
0
100
AcDbCircle
10
19.689999999999984
20
147.25000000000003
30
0
40
1.6500000000000092
210
0
220
0
230
1
0
CIRCLE
5
115
100
AcDbEntity
8
0
100
AcDbCircle
10
54.090000000000025
20
147.25000000000003
30
0
40
1.6500000000000004
210
0
220
0
230
1
0
CIRCLE
5
116
100
AcDbEntity
8
0
100
AcDbCircle
10
88.490000000000023
20
147.25000000000003
30
0
40
1.6499999999999915
210
0
220
0
230
1
0
LWPOLYLINE
5
117
100
AcDbEntity
8
0
100
AcDbPolyline
90
4
70
1
43
0.0
10
38.189999999999998
20
109.00000000000003
10
38.189999999999998
20
80.000000000000014
10
60.189999999999998
20
80.000000000000014
10
60.189999999999998
20
109.00000000000003
0
CIRCLE
5
118
100
AcDbEntity
8
0
100
AcDbCircle
10
85.190000000000026
20
94.500000000000028
30
0
40
3.2499999999999929
210
0
220
0
230
1
0
CIRCLE
5
119
100
AcDbEntity
8
0
100
AcDbCircle
10
47.689999999999998
20
62.000000000000028
30
0
40
3.499999999999996
210
0
220
0
230
1
0
CIRCLE
5
120
100
AcDbEntity
8
0
100
AcDbCircle
10
107.69
20
62.000000000000028
30
0
40
3.499999999999996
210
0
220
0
230
1
0
CIRCLE
5
121
100
AcDbEntity
8
0
100
AcDbCircle
10
62.689999999999998
20
36.000000000000028
30
0
40
3.499999999999996
210
0
220
0
230
1
0
CIRCLE
5
122
100
AcDbEntity
8
0
100
AcDbCircle
10
32.689999999999998
20
36.000000000000028
30
0
40
3.5000000000000009
210
0
220
0
230
1
0
CIRCLE
5
123
100
AcDbEntity
8
0
100
AcDbCircle
10
92.689999999999998
20
36.000000000000028
30
0
40
3.499999999999996
210
0
220
0
230
1
0
CIRCLE
5
124
100
AcDbEntity
8
0
100
AcDbCircle
10
77.689999999999998
20
62.000000000000028
30
0
40
3.499999999999996
210
0
220
0
230
1
0
CIRCLE
5
125
100
AcDbEntity
8
0
100
AcDbCircle
10
17.689999999999998
20
62.000000000000028
30
0
40
3.5000000000000009
210
0
220
0
230
1
0
CIRCLE
5
126
100
AcDbEntity
8
0
100
AcDbCircle
10
72.189999999999998
20
103.00000000000003
30
0
40
1.6500000000000004
210
0
220
0
230
1
0
LWPOLYLINE
5
127
100
AcDbEntity
8
0
100
AcDbPolyline
90
4
70
1
43
0.0
10
99.590000000000018
20
124.75000000000001
10
111.79000000000002
20
124.75000000000001
10
111.79000000000002
20
144.25000000000003
10
99.590000000000018
20
144.25000000000003
0
CIRCLE
5
128
100
AcDbEntity
8
0
100
AcDbCircle
10
71.289999999999992
20
147.25000000000003
30
0
40
1.6500000000000004
210
0
220
0
230
1
0
CIRCLE
5
129
100
AcDbEntity
8
0
100
AcDbCircle
10
36.889999999999993
20
147.25000000000003
30
0
40
1.6500000000000004
210
0
220
0
230
1
0
CIRCLE
5
130
100
AcDbEntity
8
0
100
AcDbCircle
10
106.68999999999998
20
171
30
0
40
1.6499999999999915
210
0
220
0
230
1
0
CIRCLE
5
131
100
AcDbEntity
8
0
100
AcDbCircle
10
84.689999999999998
20
188.00000000000006
30
0
40
1.6499999999999915
210
0
220
0
230
1
0
CIRCLE
5
132
100
AcDbEntity
8
0
100
AcDbCircle
10
40.689999999999998
20
179.50000000000003
30
0
40
3.2500000000000018
210
0
220
0
230
1
0
CIRCLE
5
133
100
AcDbEntity
8
0
100
AcDbCircle
10
18.689999999999994
20
188.00000000000006
30
0
40
1.6499999999999981
210
0
220
0
230
1
0
CIRCLE
5
134
100
AcDbEntity
8
0
100
AcDbCircle
10
40.690000000000019
20
188.00000000000006
30
0
40
1.6500000000000004
210
0
220
0
230
1
0
CIRCLE
5
135
100
AcDbEntity
8
0
100
AcDbCircle
10
84.689999999999998
20
179.50000000000003
30
0
40
3.2499999999999929
210
0
220
0
230
1
0
LWPOLYLINE
5
136
100
AcDbEntity
8
0
100
AcDbPolyline
90
4
70
1
43
0.0
10
13.589999999999984
20
144.25000000000003
10
13.589999999999984
20
124.75000000000001
10
25.789999999999985
20
124.75000000000001
10
25.789999999999985
20
144.25000000000003
0
LWPOLYLINE
5
137
100
AcDbEntity
8
0
100
AcDbPolyline
90
4
70
1
43
0.0
10
47.989999999999995
20
124.75000000000001
10
60.189999999999991
20
124.75000000000001
10
60.189999999999991
20
144.25000000000003
10
47.989999999999995
20
144.25000000000003
0
LWPOLYLINE
5
138
100
AcDbEntity
8
0
100
AcDbPolyline
90
4
70
1
43
0.0
10
82.390000000000015
20
124.75000000000001
10
94.590000000000018
20
124.75000000000001
10
94.590000000000018
20
144.25
10
82.390000000000015
20
144.25000000000003
0
LWPOLYLINE
5
139
100
AcDbEntity
8
0
100
AcDbPolyline
90
4
70
1
43
0.0
10
11.19
20
109.00000000000003
10
11.189999999999998
20
80.000000000000014
10
33.189999999999998
20
80.000000000000014
10
33.189999999999998
20
109.00000000000003
0
CIRCLE
5
140
100
AcDbEntity
8
0
100
AcDbCircle
10
85.190000000000026
20
103.00000000000003
30
0
40
1.6499999999999915
210
0
220
0
230
1
0
CIRCLE
5
141
100
AcDbEntity
8
0
100
AcDbCircle
10
32.689999999999998
20
62.000000000000028
30
0
40
3.5000000000000009
210
0
220
0
230
1
0
CIRCLE
5
142
100
AcDbEntity
8
0
100
AcDbCircle
10
92.689999999999998
20
62.000000000000028
30
0
40
3.499999999999996
210
0
220
0
230
1
0
CIRCLE
5
143
100
AcDbEntity
8
0
100
AcDbCircle
10
77.689999999999998
20
36.000000000000028
30
0
40
3.499999999999996
210
0
220
0
230
1
0
CIRCLE
5
144
100
AcDbEntity
8
0
100
AcDbCircle
10
17.689999999999998
20
36.000000000000028
30
0
40
3.5000000000000009
210
0
220
0
230
1
0
CIRCLE
5
145
100
AcDbEntity
8
0
100
AcDbCircle
10
49.190000000000005
20
209.50000000000003
30
0
40
3.499999999999996
210
0
220
0
230
1
0
CIRCLE
5
146
100
AcDbEntity
8
0
100
AcDbCircle
10
76.189999999999998
20
209.50000000000003
30
0
40
3.499999999999996
210
0
220
0
230
1
0
CIRCLE
5
147
100
AcDbEntity
8
0
100
AcDbCircle
10
22.189999999999998
20
209.50000000000003
30
0
40
3.4999999999999876
210
0
220
0
230
1
0
CIRCLE
5
148
100
AcDbEntity
8
0
100
AcDbCircle
10
103.19000000000001
20
209.50000000000003
30
0
40
3.499999999999996
210
0
220
0
230
1
0
CIRCLE
5
149
100
AcDbEntity
8
0
100
AcDbCircle
10
117.18000000000001
20
8.7199999999999989
30
0
40
2.5
210
0
220
0
230
1
0
CIRCLE
5
150
100
AcDbEntity
8
0
100
AcDbCircle
10
117.18000000000001
20
222.78000000000006
30
0
40
2.5
210
0
220
0
230
1
0
CIRCLE
5
151
100
AcDbEntity
8
0
100
AcDbCircle
10
8.2000000000000011
20
8.7200000000000006
30
0
40
2.5
210
0
220
0
230
1
0
CIRCLE
5
152
100
AcDbEntity
8
0
100
AcDbCircle
10
8.2000000000000011
20
222.78000000000006
30
0
40
2.4999999999999933
210
0
220
0
230
1
0
LWPOLYLINE
5
153
100
AcDbEntity
8
0
100
AcDbPolyline
90
4
70
1
43
0.0
10
0
20
0
10
0
20
231.50000000000003
10
125.38
20
231.50000000000003
10
125.38
20
0
0
ENDSEC
0
SECTION
2
OBJECTS
0
DICTIONARY
5
C
100
AcDbDictionary
3
ACAD_GROUP
350
D
3
ACAD_MLINESTYLE
350
17
0
DICTIONARY
5
D
100
AcDbDictionary
0
DICTIONARY
5
1A
330
C
100
AcDbDictionary
0
DICTIONARY
5
17
100
AcDbDictionary
0
ENDSEC
0
EOF
